<?xml version="1.0" encoding="UTF-8" standalone="no"?>
<!DOCTYPE svg PUBLIC "-//W3C//DTD SVG 1.1//EN" "http://www.w3.org/Graphics/SVG/1.1/DTD/svg11.dtd">
<svg version="1.1" xmlns="http://www.w3.org/2000/svg" xmlns:xlink="http://www.w3.org/1999/xlink" preserveAspectRatio="xMidYMid meet" viewBox="258.9999669705649 215.76989796609166 115.00009515592495 136.4601309568385" width="1" height="1.19"><defs><path d="M351.9 253.24C353.74 255.06 354.9 256.2 355.36 256.66C375.67 276.73 376.28 309.34 356.73 330.16C356.02 330.91 354.25 332.8 351.41 335.81C349.1 337.46 347.66 338.49 347.08 338.9C326.41 353.63 298.4 352.51 278.97 336.18C275.37 333.14 272.33 330.18 269.86 327.29C268.96 326.25 268.22 325.22 267.65 324.21C255.22 302.47 258.15 275.21 274.91 256.6C275.3 256.16 276.3 255.05 277.89 253.29L314.6 216.77L314.6 240.63C315.39 240.64 315.89 240.64 316.09 240.65C329.08 240.81 341.66 245.23 351.9 253.24C351.9 253.24 351.9 253.24 351.9 253.24Z" id="a8ZvvJze"></path></defs><g><g><use xlink:href="#a8ZvvJze" opacity="1" fill="#ff3378" fill-opacity="1"></use><g><use xlink:href="#a8ZvvJze" opacity="1" fill-opacity="0" stroke="#000000" stroke-width="1" stroke-opacity="0"></use></g></g></g></svg>