<?xml version="1.0" encoding="UTF-8" standalone="no"?>
<!DOCTYPE svg PUBLIC "-//W3C//DTD SVG 1.1//EN" "http://www.w3.org/Graphics/SVG/1.1/DTD/svg11.dtd">
<svg version="1.1" xmlns="http://www.w3.org/2000/svg" xmlns:xlink="http://www.w3.org/1999/xlink" preserveAspectRatio="xMidYMid meet" viewBox="187.27141487742162 162.43970893007818 266.04063211088476 316.70523118701317" width="262.04" height="312.71"><defs><path d="M233.37 390.05C229.01 385.75 226.29 383.05 225.2 381.98C177.25 334.59 175.81 257.61 221.97 208.47C223.64 206.69 227.83 202.24 234.52 195.11C239.97 191.23 243.38 188.8 244.74 187.83C293.53 153.06 359.66 155.7 405.52 194.26C414.04 201.42 421.21 208.41 427.05 215.23C429.16 217.7 430.9 220.12 432.26 222.5C461.59 273.83 454.69 338.19 415.12 382.12C414.18 383.16 411.84 385.77 408.08 389.94L321.41 476.14L321.41 419.82C319.54 419.8 318.37 419.79 317.9 419.78C287.23 419.4 257.53 408.96 233.37 390.05C233.37 390.05 233.37 390.05 233.37 390.05Z" id="bu1Y0qcOc"></path></defs><g><g><use xlink:href="#bu1Y0qcOc" opacity="1" fill="#ff3478" fill-opacity="1"></use><g><use xlink:href="#bu1Y0qcOc" opacity="1" fill-opacity="0" stroke="#000000" stroke-width="1" stroke-opacity="0"></use></g></g></g></svg>