<?xml version="1.0" encoding="UTF-8" standalone="no"?>
<!DOCTYPE svg PUBLIC "-//W3C//DTD SVG 1.1//EN" "http://www.w3.org/Graphics/SVG/1.1/DTD/svg11.dtd">
<svg version="1.1" xmlns="http://www.w3.org/2000/svg" xmlns:xlink="http://www.w3.org/1999/xlink" preserveAspectRatio="xMidYMid meet" viewBox="186.95936788911524 341.64933650911007 116.04063211088481 137.70327908439657" width="112.04" height="133.7"><defs><path d="M207.24 439.54C205.38 437.7 204.21 436.55 203.75 436.09C183.24 415.83 182.63 382.91 202.37 361.9C203.08 361.14 204.87 359.24 207.73 356.19C210.06 354.53 211.52 353.49 212.1 353.08C232.96 338.21 261.24 339.34 280.85 355.83C284.49 358.89 287.56 361.88 290.05 364.79C290.96 365.85 291.7 366.89 292.28 367.9C304.82 389.85 301.87 417.37 284.95 436.15C284.55 436.6 283.55 437.71 281.94 439.49L244.89 476.35L244.89 452.27C244.09 452.26 243.59 452.26 243.39 452.25C230.27 452.09 217.57 447.63 207.24 439.54C207.24 439.54 207.24 439.54 207.24 439.54Z" id="e5a7CefRn"></path></defs><g><g><use xlink:href="#e5a7CefRn" opacity="1" fill="#ff3478" fill-opacity="1.00"></use><g><use xlink:href="#e5a7CefRn" opacity="1" fill-opacity="0" stroke="#000000" stroke-width="1" stroke-opacity="0"></use></g></g></g></svg>